<svg width="1149" height="596" viewBox="0 0 1149 596" fill="none" xmlns="http://www.w3.org/2000/svg">
<path d="M299.38 278.154C283.23 141.317 378.99 17.541 513.26 1.69397C647.54 -14.153 769.48 83.929 785.63 220.766C801.78 357.6 706.02 481.38 571.75 497.23C437.47 513.07 315.52 414.99 299.38 278.154Z" fill="#DB8300" fill-opacity="0.65"/>
<g style="mix-blend-mode:overlay">
<path d="M17.492 382.7L27.039 397.22C33.702 407.36 45.97 412.28 57.79 409.55L245.05 366.37C340.54 344.35 438.3 326.97 535.92 335.61C610.45 342.21 724.32 370.37 724.32 370.37C810.73 391.86 933.21 441.4 966.98 455.35C972.97 457.82 978.64 460.82 983.77 464.78C1028.65 499.45 1070.2 565.34 1080.62 582.52C1082.09 584.96 1085.03 586.05 1087.69 585.03C1098.57 580.86 1125.65 569.28 1134.14 554.38C1140.64 542.97 1137.77 522.91 1136.38 515.44C1136.03 513.57 1134.87 511.99 1133.24 510.99C1124.22 505.49 1093.41 486.21 1075.82 469.19C1058.97 452.87 1039.35 424.19 1033.57 415.53C1032.49 413.91 1032.16 411.93 1032.59 410.03C1035.6 396.93 1046.79 343.38 1037.21 309.33C1027.53 274.917 1017 249.928 994.26 222.326C931.66 146.31 865.46 129.59 769.71 106.337C708.97 91.583 676.27 87.551 615.56 82.879C543.88 77.363 503.07 76.218 431.47 82.682C344.83 90.504 293.37 93.827 212.56 126.056C140.56 154.776 75.3721 203.501 35.8351 270.185C29.4901 280.885 24.125 291.717 20.528 302.172C16.058 315.16 13.226 322.53 11.372 336.14C10.295 344.04 10.402 354.49 10.719 362.3C11.014 369.6 13.482 376.6 17.492 382.7Z" stroke="#FFC916" stroke-width="20"/>
</g>
</svg>
